<svg xmlns="http://www.w3.org/2000/svg" version="1.1" xmlns:xlink="http://www.w3.org/1999/xlink" xmlns:svgjs="http://svgjs.dev/svgjs" viewBox="0 0 800 800"><symbol id="SvgjsSymbol1003"><polygon points="0,12.5 25,0 50,12.5 25,25"></polygon></symbol><symbol id="SvgjsSymbol1004"><polygon points="0,12.5 25,25 25,50 0,37.5"></polygon></symbol><symbol id="SvgjsSymbol1005"><polygon points="25,25 50,12.5 50,37.5 25,50"></polygon></symbol><g shape-rendering="crispEdges"><g><use xlink:href="#SvgjsSymbol1003" x="250" y="387.5" fill="#40a2d8"></use><use xlink:href="#SvgjsSymbol1004" x="250" y="387.5" fill="#7bd3ff"></use><use xlink:href="#SvgjsSymbol1005" x="250" y="387.5" fill="#0073a6"></use></g><g><use xlink:href="#SvgjsSymbol1003" x="300" y="387.5" fill="#40a2d8"></use><use xlink:href="#SvgjsSymbol1004" x="300" y="387.5" fill="#7bd3ff"></use><use xlink:href="#SvgjsSymbol1005" x="300" y="387.5" fill="#0073a6"></use></g><g><use xlink:href="#SvgjsSymbol1003" x="350" y="387.5" fill="#40a2d8"></use><use xlink:href="#SvgjsSymbol1004" x="350" y="387.5" fill="#7bd3ff"></use><use xlink:href="#SvgjsSymbol1005" x="350" y="387.5" fill="#0073a6"></use></g><g><use xlink:href="#SvgjsSymbol1003" x="400" y="387.5" fill="#40a2d8"></use><use xlink:href="#SvgjsSymbol1004" x="400" y="387.5" fill="#7bd3ff"></use><use xlink:href="#SvgjsSymbol1005" x="400" y="387.5" fill="#0073a6"></use></g><g><use xlink:href="#SvgjsSymbol1003" x="450" y="387.5" fill="#40a2d8"></use><use xlink:href="#SvgjsSymbol1004" x="450" y="387.5" fill="#7bd3ff"></use><use xlink:href="#SvgjsSymbol1005" x="450" y="387.5" fill="#0073a6"></use></g><g><use xlink:href="#SvgjsSymbol1003" x="325" y="412.5" fill="#40a2d8"></use><use xlink:href="#SvgjsSymbol1004" x="325" y="412.5" fill="#7bd3ff"></use><use xlink:href="#SvgjsSymbol1005" x="325" y="412.5" fill="#0073a6"></use></g><g><use xlink:href="#SvgjsSymbol1003" x="375" y="412.5" fill="#40a2d8"></use><use xlink:href="#SvgjsSymbol1004" x="375" y="412.5" fill="#7bd3ff"></use><use xlink:href="#SvgjsSymbol1005" x="375" y="412.5" fill="#0073a6"></use></g><g><use xlink:href="#SvgjsSymbol1003" x="350" y="425" fill="#40a2d8"></use><use xlink:href="#SvgjsSymbol1004" x="350" y="425" fill="#7bd3ff"></use><use xlink:href="#SvgjsSymbol1005" x="350" y="425" fill="#0073a6"></use></g></g><g></g></svg>